<?xml version="1.0" encoding="utf-8"?>
<!-- Generator: Adobe Illustrator 24.1.3, SVG Export Plug-In . SVG Version: 6.00 Build 0)  -->
<svg version="1.1" id="Layer_1" xmlns="http://www.w3.org/2000/svg" xmlns:xlink="http://www.w3.org/1999/xlink" x="0px" y="0px"
	 viewBox="0 0 70 64" style="enable-background:new 0 0 70 64;" xml:space="preserve">
<style type="text/css">
	.st0{fill:#4285F4;}
	.st1{fill:#000001;stroke:#000000;stroke-width:0.5;}
	.st2{fill:#1A1818;stroke:#000000;stroke-width:0.5;}
	.st3{fill:#FFFFFF;}
	.st4{fill:none;stroke:#000000;stroke-miterlimit:10;}
	.st5{stroke:#000000;stroke-width:0.2;}
	.st6{fill:#100F0C;stroke:#000000;stroke-width:0.75;}
	.st7{fill:none;stroke:#000000;stroke-width:0.75;}
	.st8{fill:#FFFFFF;stroke:#000000;stroke-width:0.75;}
	.st9{fill:#100F0C;stroke:#000000;}
	.st10{stroke:#000000;stroke-width:0.4187;stroke-miterlimit:10;}
	.st11{fill:#1A1818;stroke:#000000;stroke-width:0.7;}
	.st12{fill:#040505;stroke:#000000;stroke-width:0.5;}
</style>
<g id="Group_741" transform="translate(0.25 0.25)">
	<g id="Path_433">
		<path d="M40.2,61.8H1.1V9h0.6v52.2h37.9V3.7H17.2V3.1h23V61.8z"/>
		<path d="M40.4,62H0.9V8.8h1V61h37.5V3.9H17v-1h23.4V62z M1.3,61.6H40V3.3H17.4v0.2h22.4v57.9H1.5V9.2H1.3V61.6z"/>
	</g>
	<g id="Path_434">
		<path d="M52.9,48H39.6V15.3h13.2V48z M40.2,47.4h12.1V15.9H40.2L40.2,47.4z"/>
		<path d="M53.1,48.2H39.4v-33h13.7V48.2z M39.8,47.7h12.8V15.5H39.8V47.7z M52.5,47.6H40l0-31.8h12.5V47.6z M40.4,47.1h11.6v-31
			H40.4L40.4,47.1z"/>
	</g>
	<g id="Path_437">
		<path d="M53,53.7h-13c-0.2,0-0.3-0.1-0.3-0.3c0-0.2,0.1-0.3,0.3-0.3h13c1,0,1.7-0.8,1.7-1.7V32.9c0-0.2,0.1-0.3,0.3-0.3
			s0.3,0.1,0.3,0.3v18.5C55.3,52.7,54.2,53.7,53,53.7z"/>
		<path d="M53,53.9h-13c-0.3,0-0.5-0.2-0.5-0.5s0.2-0.5,0.5-0.5h13c0.8,0,1.5-0.7,1.5-1.5V32.9c0-0.3,0.2-0.5,0.5-0.5
			c0.3,0,0.5,0.2,0.5,0.5v18.5C55.5,52.8,54.4,53.9,53,53.9z M39.9,53.4C39.9,53.4,39.8,53.4,39.9,53.4c-0.1,0.1,0,0.2,0,0.2h13
			c1.2,0,2.1-1,2.1-2.1V32.9c0-0.1-0.2-0.1-0.2,0v18.5c0,1.1-0.9,1.9-1.9,1.9H39.9z"/>
	</g>
	<g id="Path_438">
		<path d="M55,26c-0.2,0-0.3-0.1-0.3-0.3V15.1c0-1-0.8-1.7-1.7-1.7h-13c-0.2,0-0.3-0.1-0.3-0.3c0-0.2,0.1-0.3,0.3-0.3h13
			c1.3,0,2.3,1,2.3,2.3v10.7C55.3,25.9,55.2,26,55,26z"/>
		<path d="M55,26.3L55,26.3c-0.3,0-0.5-0.2-0.5-0.5V15.1c0-0.8-0.7-1.5-1.5-1.5h-13c-0.3,0-0.5-0.2-0.5-0.5c0-0.3,0.2-0.5,0.5-0.5
			h13c1.4,0,2.5,1.1,2.5,2.5v10.7C55.5,26,55.3,26.3,55,26.3L55,26.3z M39.9,13C39.9,13,39.8,13,39.9,13c-0.1,0.1,0,0.2,0,0.2h13
			c1.1,0,1.9,0.9,1.9,1.9v10.7c0,0,0,0.1,0.1,0.1c0,0,0.1,0,0.1-0.1V15.1c0-1.2-1-2.1-2.1-2.1H39.9z"/>
	</g>
	<g id="Path_439">
		<path d="M17.5,4.8h-2.9V1.9h2.9V4.8z M15.2,4.2h1.7V2.5h-1.7V4.2z"/>
		<path d="M17.7,5h-3.3V1.7h3.3V5z M14.8,4.6h2.5V2.1h-2.5V4.6z M17.1,4.4H15V2.3h2.1V4.4z M15.4,4h1.3V2.7h-1.3V4z"/>
	</g>
	<g id="Path_440">
		<path d="M1.4,9.3C0.6,9.3,0,8.6,0,7.8s0.6-1.4,1.4-1.4c0.8,0,1.4,0.6,1.4,1.4c0,0,0,0,0,0C2.8,8.6,2.2,9.3,1.4,9.3z M1.4,7
			C0.9,7,0.6,7.4,0.6,7.8c0,0.5,0.4,0.9,0.9,0.9c0.5,0,0.9-0.4,0.9-0.9C2.3,7.4,1.9,7,1.4,7L1.4,7z"/>
		<path d="M1.4,9.5L1.4,9.5c-0.9,0-1.7-0.7-1.7-1.7c0-0.9,0.7-1.7,1.7-1.7s1.7,0.7,1.7,1.7C3.1,8.8,2.3,9.5,1.4,9.5z M1.4,6.6
			c-0.7,0-1.2,0.6-1.2,1.2c0,0.7,0.6,1.2,1.2,1.2c0.7,0,1.2-0.6,1.2-1.2C2.6,7.2,2.1,6.6,1.4,6.6z M1.4,8.9c-0.6,0-1.1-0.5-1.1-1.1
			c0-0.3,0.1-0.5,0.3-0.7s0.5-0.3,0.7-0.3l0,0c0.6,0,1.1,0.5,1.1,1.1S2,8.9,1.4,8.9z M1.4,7.2C1.2,7.2,1.1,7.3,1,7.4
			C0.8,7.5,0.8,7.7,0.8,7.8c0,0.4,0.3,0.6,0.6,0.6C1.8,8.5,2,8.2,2,7.8C2,7.5,1.8,7.2,1.4,7.2z"/>
	</g>
	<g id="Group_687" transform="translate(20.571 30.893)">
		<g id="Path_441">
			<path d="M5.7-1.3c-0.2,0-0.3-0.1-0.3-0.3l0,0v-1h-8.2v1c0,0.2-0.1,0.3-0.3,0.3c-0.2,0-0.3-0.1-0.3-0.3v-1.2
				c0-0.2,0.1-0.3,0.3-0.3l0,0h8.8C5.9-3.1,6-3,6-2.8l0,0v1.2C6-1.4,5.9-1.3,5.7-1.3z"/>
			<path d="M-3.1-1c-0.3,0-0.5-0.2-0.5-0.5v-1.2c0-0.3,0.2-0.5,0.5-0.5h8.8c0.3,0,0.5,0.2,0.5,0.5v1.2C6.2-1.3,6-1,5.7-1
				C5.5-1,5.2-1.3,5.2-1.5v-0.7h-7.8v0.7C-2.6-1.3-2.8-1-3.1-1z M-3.1-2.9C-3.1-2.9-3.2-2.8-3.1-2.9l-0.1,1.3c0,0.1,0.2,0.1,0.2,0
				v-1.2h8.6v1.2c0,0.1,0.2,0.1,0.2,0v-1.2c0,0,0-0.1-0.1-0.1H-3.1z"/>
		</g>
	</g>
	<g id="Path_442">
		<path d="M21.9,36.1c-0.2,0-0.3-0.1-0.3-0.3l0,0v-7.7c0-0.2,0.1-0.3,0.3-0.3s0.3,0.1,0.3,0.3v7.7C22.2,35.9,22.1,36.1,21.9,36.1z"
			/>
		<path d="M21.9,36.3c-0.3,0-0.5-0.2-0.5-0.5v-7.7c0-0.3,0.2-0.5,0.5-0.5s0.5,0.2,0.5,0.5v7.7C22.4,36.1,22.2,36.3,21.9,36.3z
			 M21.9,28C21.8,28,21.8,28.1,21.9,28l-0.1,7.8c0,0.1,0.2,0.1,0.2,0L21.9,28C22,28.1,21.9,28,21.9,28z"/>
	</g>
	<g id="Path_443">
		<path d="M23.1,36.1h-2.6c-0.2,0-0.3-0.1-0.3-0.3c0-0.2,0.1-0.3,0.3-0.3h2.6c0.2,0,0.3,0.1,0.3,0.3C23.4,35.9,23.3,36.1,23.1,36.1
			L23.1,36.1z"/>
		<path d="M23.1,36.3h-2.6c-0.3,0-0.5-0.2-0.5-0.5c0-0.3,0.2-0.5,0.5-0.5h2.6c0.3,0,0.5,0.2,0.5,0.5C23.6,36.1,23.4,36.3,23.1,36.3z
			 M20.6,35.7C20.5,35.7,20.5,35.7,20.6,35.7c-0.1,0.1,0,0.2,0,0.2h2.6c0,0,0.1,0,0.1-0.1s0-0.1-0.1-0.1H20.6z"/>
	</g>
	<g id="Path_444">
		<path d="M44.6,51.9c-0.8,0-1.4-0.6-1.4-1.4c0-0.8,0.6-1.4,1.4-1.4s1.4,0.6,1.4,1.4S45.4,51.9,44.6,51.9L44.6,51.9z M44.6,49.6
			c-0.5,0-0.9,0.4-0.9,0.9c0,0.5,0.4,0.9,0.9,0.9c0.5,0,0.9-0.4,0.9-0.9l0,0C45.4,50,45,49.6,44.6,49.6L44.6,49.6z"/>
		<path d="M44.6,52.2c-0.9,0-1.7-0.7-1.7-1.7c0-0.9,0.7-1.7,1.7-1.7s1.7,0.7,1.7,1.7C46.2,51.4,45.5,52.2,44.6,52.2z M44.6,49.3
			c-0.7,0-1.2,0.6-1.2,1.2c0,0.7,0.6,1.2,1.2,1.2s1.2-0.6,1.2-1.2C45.8,49.8,45.2,49.3,44.6,49.3z M44.6,51.6
			c-0.3,0-0.5-0.1-0.7-0.3c-0.2-0.2-0.3-0.5-0.3-0.7c0-0.3,0.1-0.5,0.3-0.8c0.2-0.2,0.5-0.3,0.7-0.3c0.6,0,1.1,0.5,1.1,1.1
			c0,0.3-0.1,0.5-0.3,0.8C45.1,51.5,44.8,51.6,44.6,51.6C44.6,51.6,44.6,51.6,44.6,51.6z M44.6,49.9c-0.2,0-0.3,0.1-0.5,0.2
			c-0.1,0.1-0.2,0.3-0.2,0.5s0.1,0.3,0.2,0.5c0.1,0.1,0.3,0.2,0.5,0.2c0,0,0,0,0,0c0.2,0,0.3-0.1,0.5-0.2c0.1-0.1,0.2-0.3,0.2-0.5
			C45.2,50.1,44.9,49.9,44.6,49.9z"/>
	</g>
</g>
</svg>
