<?xml version="1.0" encoding="utf-8"?>
<!-- Generator: Adobe Illustrator 24.1.3, SVG Export Plug-In . SVG Version: 6.00 Build 0)  -->
<svg version="1.1" id="Layer_1" xmlns="http://www.w3.org/2000/svg" xmlns:xlink="http://www.w3.org/1999/xlink" x="0px" y="0px"
	 viewBox="0 0 70 64" style="enable-background:new 0 0 70 64;" xml:space="preserve">
<style type="text/css">
	.st0{fill:#4285F4;}
	.st1{fill:#000001;stroke:#000000;stroke-width:0.5;}
	.st2{fill:#1A1818;stroke:#000000;stroke-width:0.5;}
	.st3{fill:#FFFFFF;}
	.st4{fill:none;stroke:#000000;stroke-miterlimit:10;}
	.st5{stroke:#000000;stroke-width:0.2;}
	.st6{fill:#100F0C;stroke:#000000;stroke-width:0.75;}
	.st7{fill:none;stroke:#000000;stroke-width:0.75;}
	.st8{fill:#FFFFFF;stroke:#000000;stroke-width:0.75;}
	.st9{fill:#100F0C;stroke:#000000;}
	.st10{stroke:#000000;stroke-width:0.4187;stroke-miterlimit:10;}
	.st11{fill:#1A1818;stroke:#000000;stroke-width:0.7;}
	.st12{fill:#040505;stroke:#000000;stroke-width:0.5;}
</style>
<g id="Group_748" transform="translate(0.25 0.25)">
	<g id="Path_445">
		<path d="M27.1,62.9c-11.4,0-20.6-9.2-20.6-20.6V29.9h0.6v12.5c0,11,8.9,20,20,20c11,0,20-8.9,20-20V29.9h0.6v12.5
			C47.7,53.7,38.5,62.9,27.1,62.9C27.1,62.9,27.1,62.9,27.1,62.9L27.1,62.9z"/>
		<path d="M27.1,63.1L27.1,63.1c-11.5,0-20.8-9.3-20.8-20.8V29.7h1v12.7c0,10.9,8.9,19.8,19.8,19.8s19.8-8.9,19.8-19.8V29.7h1v12.7
			c0,5.6-2.2,10.8-6.1,14.7C37.9,61,32.7,63.1,27.1,63.1z M6.8,30.1v12.3c0,11.2,9.1,20.4,20.4,20.4l0,0c5.4,0,10.5-2.1,14.4-6
			c3.8-3.8,6-9,6-14.4V30.1h-0.2v12.3c0,11.1-9.1,20.2-20.2,20.2C16,62.5,6.9,53.5,6.9,42.3V30.1H6.8z"/>
	</g>
	<g id="Path_446">
		<path d="M48.7,40.7h-1.6V29.6h1.6c3.1,0,5.6,2.5,5.6,5.6C54.3,38.2,51.8,40.7,48.7,40.7z M47.7,40.1h1c2.7,0,5-2.2,5-4.9
			c0-2.7-2.2-5-4.9-5c0,0-0.1,0-0.1,0h-1V40.1z"/>
		<path d="M48.7,40.9h-1.8V29.4h1.8c3.2,0,5.8,2.6,5.8,5.8S51.9,40.9,48.7,40.9z M47.3,40.5h1.4c3,0,5.4-2.4,5.4-5.4
			s-2.4-5.4-5.4-5.4h-1.4V40.5z M48.8,40.3C48.7,40.3,48.7,40.3,48.8,40.3l-1.3,0V30h1.4c1.4,0,2.7,0.6,3.6,1.6c1,1,1.5,2.3,1.5,3.7
			C53.9,38,51.6,40.3,48.8,40.3z M47.9,39.9h0.8c0,0,0,0,0.1,0c2.6,0,4.7-2.1,4.8-4.7c0-1.3-0.5-2.5-1.4-3.4
			c-0.9-0.9-2.1-1.4-3.3-1.4h-0.9V39.9z"/>
	</g>
	<g id="Path_447">
		<path d="M7.1,40.7H5.5c-3.1,0-5.6-2.5-5.6-5.6c0-3.1,2.5-5.6,5.6-5.6h1.6L7.1,40.7z M5.5,30.2c-2.7,0-5,2.2-5,4.9
			c0,2.7,2.2,5,4.9,5c0,0,0.1,0,0.1,0h1v-9.9L5.5,30.2z"/>
		<path d="M7.3,40.9H5.5c-3.2,0-5.8-2.6-5.8-5.8s2.6-5.8,5.8-5.8h1.8L7.3,40.9z M5.5,29.8c-3,0-5.4,2.4-5.4,5.4s2.4,5.4,5.4,5.4h1.4
			l0-10.7H5.5z M6.8,40.3H5.4c-1.4,0-2.7-0.6-3.6-1.6c-1-1-1.5-2.3-1.5-3.7c0-1.4,0.6-2.7,1.6-3.6c1-0.9,2.3-1.5,3.6-1.5
			c0,0,0,0,0.1,0h1.2V40.3z M5.5,30.4c-1.2,0-2.4,0.5-3.3,1.4c-0.9,0.9-1.4,2.1-1.4,3.3c0,1.3,0.5,2.5,1.4,3.4
			c0.9,0.9,2.1,1.4,3.3,1.4h0.9v-9.5L5.5,30.4C5.5,30.4,5.5,30.4,5.5,30.4z"/>
	</g>
	<g id="Path_448">
		<path d="M52.7,31.7h-0.3l0-0.3h-0.3v-4.7c0-10.7-6.8-20.2-17-23.6l0.2-0.6c10.4,3.5,17.4,13.2,17.4,24.2L52.7,31.7z"/>
		<path d="M53,31.9h-0.7l0-0.3h-0.3v-4.9c0-10.6-6.8-20.1-16.8-23.4l-0.2-0.1l0.3-1l0.2,0.1C45.9,5.9,53,15.7,53,26.8L53,31.9z
			 M52.4,31.2h0.2l0-4.4c0-10.8-6.8-20.4-17-23.9L35.4,3c10.1,3.5,16.9,13,16.9,23.8V31.2z"/>
	</g>
	<g id="Path_449">
		<path d="M2.3,31.2H1.7v-4.5c0-3.8,0.8-7.6,2.5-11.1L4.7,16C3.1,19.3,2.3,23,2.3,26.8L2.3,31.2z"/>
		<path d="M2.5,31.4h-1v-4.7c0-3.8,0.9-7.7,2.5-11.2l0.1-0.2L5,15.9L4.9,16c-1.6,3.3-2.4,7-2.4,10.7L2.5,31.4z M1.9,31h0.2l0-4.3
			c0-3.7,0.8-7.4,2.4-10.7L4.3,16c-1.6,3.4-2.4,7.1-2.4,10.8V31z"/>
	</g>
	<g id="Path_450">
		<path d="M47.9,30.2c-3.3,0-6-3.2-6-7.1v-1.3c0.1-1-0.6-1.9-1.7-2.1c-0.2,0-0.3,0-0.5,0.1c-4.2,0.7-8.4,1.1-12.6,1.1l0,0h-0.3
			c-4.2,0-8.5-0.4-12.6-1.1c-0.2,0-0.3-0.1-0.5-0.1c-1,0.1-1.8,1-1.7,2.1v1.3c0,3.9-2.7,7.1-5.9,7.1v-0.6c3,0,5.4-2.9,5.4-6.5v-1.3
			c-0.1-1.4,0.9-2.5,2.3-2.6c0.2,0,0.4,0,0.6,0.1c8.4,1.4,16.9,1.4,25.3,0c0.2,0,0.4-0.1,0.6-0.1c1.4,0.1,2.4,1.3,2.3,2.6v1.3
			c0,3.6,2.4,6.5,5.4,6.5L47.9,30.2z"/>
		<path d="M6.1,30.4H5.8v-1h0.2c2.8,0,5.2-2.8,5.2-6.3v-1.3c-0.1-1.4,1-2.7,2.5-2.9c0.2,0,0.5,0,0.7,0.1c8.4,1.4,16.9,1.4,25.3,0
			c0.2,0,0.4-0.1,0.7-0.1c1.5,0.1,2.6,1.4,2.5,2.9l0,1.3c0,3.4,2.3,6.3,5.2,6.3h0.2l0,1h-0.2c-3.4,0-6.2-3.3-6.2-7.3v-1.3
			c0.1-0.9-0.6-1.7-1.5-1.8c-0.1,0-0.3,0-0.4,0.1c-4.2,0.7-8.4,1.1-12.7,1.1h-0.3c-4.2,0-8.5-0.4-12.7-1.1C14,20,13.8,20,13.7,20
			c-0.9,0.1-1.5,0.9-1.5,1.8l0,1.3C12.2,27.1,9.4,30.4,6.1,30.4z M6.3,29.8V30c3.1-0.1,5.5-3.2,5.5-6.8v-1.3
			c-0.1-1.1,0.7-2.1,1.9-2.3c0.2,0,0.4,0,0.6,0.1c4.1,0.7,8.4,1,12.6,1.1h0.3c4.2,0,8.5-0.4,12.6-1.1c0.2,0,0.4-0.1,0.6-0.1
			c1.2,0.1,2,1.1,1.9,2.3l0,1.3c0,3.7,2.5,6.7,5.5,6.8l0-0.2c-3-0.1-5.4-3.1-5.4-6.7v-1.3c0.1-1.2-0.8-2.3-2.1-2.4
			c-0.2,0-0.4,0-0.6,0.1c-8.4,1.4-17,1.4-25.4,0c-0.2,0-0.4-0.1-0.6-0.1c-1.2,0.1-2.1,1.2-2.1,2.4l0,1.3
			C11.6,26.7,9.2,29.6,6.3,29.8z"/>
	</g>
	<g id="Path_451">
		<path d="M5.6,16.8L3,15.5l1.2-2.6l2.6,1.2L5.6,16.8z M3.8,15.3L5.3,16L6,14.5l-1.5-0.7L3.8,15.3z"/>
		<path d="M5.7,17.1l-3-1.4l1.4-3l3,1.4L5.7,17.1z M3.3,15.4l2.2,1.1l1.1-2.2l-2.2-1.1L3.3,15.4z M5.4,16.3l-1.9-0.9l0.9-1.9
			l1.9,0.9L5.4,16.3z M4.1,15.2l1.2,0.6l0.6-1.2L4.6,14L4.1,15.2z"/>
	</g>
	<g id="Path_452">
		<path d="M34.2,3.8c-0.8,0-1.4-0.6-1.4-1.4c0-0.8,0.6-1.4,1.4-1.4c0.8,0,1.4,0.6,1.4,1.4C35.6,3.1,35,3.8,34.2,3.8z M34.2,1.5
			c-0.5,0-0.9,0.4-0.9,0.9c0,0.5,0.4,0.9,0.9,0.9c0.5,0,0.9-0.4,0.9-0.9C35,1.9,34.7,1.5,34.2,1.5z"/>
		<path d="M34.2,4c-0.9,0-1.7-0.7-1.7-1.7c0-0.9,0.7-1.7,1.7-1.7c0.9,0,1.7,0.7,1.7,1.7C35.8,3.3,35.1,4,34.2,4z M34.2,1.1
			c-0.7,0-1.2,0.6-1.2,1.2c0,0.7,0.6,1.2,1.2,1.2s1.2-0.6,1.2-1.2C35.4,1.7,34.9,1.1,34.2,1.1z M34.2,3.4c-0.6,0-1.1-0.5-1.1-1.1
			c0-0.6,0.5-1.1,1.1-1.1l0,0c0.6,0,1.1,0.5,1.1,1.1C35.3,2.9,34.8,3.4,34.2,3.4C34.2,3.4,34.2,3.4,34.2,3.4z M34.2,1.7
			c-0.4,0-0.6,0.3-0.6,0.6c0,0.4,0.3,0.6,0.6,0.6c0,0,0,0,0,0c0.4,0,0.6-0.3,0.6-0.6C34.8,2,34.5,1.7,34.2,1.7z"/>
	</g>
</g>
</svg>
