<?xml version="1.0" encoding="utf-8"?>
<!-- Generator: Adobe Illustrator 24.1.3, SVG Export Plug-In . SVG Version: 6.00 Build 0)  -->
<svg version="1.1" id="Layer_1" xmlns="http://www.w3.org/2000/svg" xmlns:xlink="http://www.w3.org/1999/xlink" x="0px" y="0px"
	 viewBox="0 0 70 64" style="enable-background:new 0 0 70 64;" xml:space="preserve">
<style type="text/css">
	.st0{fill:#4285F4;}
	.st1{fill:#000001;stroke:#000000;stroke-width:0.5;}
	.st2{fill:#1A1818;stroke:#000000;stroke-width:0.5;}
	.st3{fill:#FFFFFF;}
	.st4{fill:none;stroke:#000000;stroke-miterlimit:10;}
	.st5{stroke:#000000;stroke-width:0.2;}
	.st6{fill:#100F0C;stroke:#000000;stroke-width:0.75;}
	.st7{fill:none;stroke:#000000;stroke-width:0.75;}
	.st8{fill:#FFFFFF;stroke:#000000;stroke-width:0.75;}
	.st9{fill:#100F0C;stroke:#000000;}
	.st10{stroke:#000000;stroke-width:0.4187;stroke-miterlimit:10;}
	.st11{fill:#1A1818;stroke:#000000;stroke-width:0.7;}
	.st12{fill:#040505;stroke:#000000;stroke-width:0.5;}
</style>
<g id="Group_749" transform="translate(0.25 0.25)">
	<g id="Path_479">
		<path d="M36.9,63.5H3.7c-2,0-3.7-1.7-3.7-3.7V26.2c0-0.4,0.1-0.8,0.2-1.1l5.1-10.3h30l5,10.3c0.2,0.4,0.2,0.7,0.2,1.1v33.6
			C40.6,61.9,39,63.5,36.9,63.5z M5.7,15.4l-4.9,10c-0.1,0.3-0.2,0.6-0.2,0.9v33.6c0,1.7,1.4,3.1,3.1,3.1h33.2
			c1.7,0,3.1-1.4,3.1-3.1V26.2c0-0.3-0.1-0.6-0.2-0.9l-4.9-10L5.7,15.4z"/>
		<path d="M36.9,63.8H3.7c-2.2,0-3.9-1.8-3.9-3.9V26.2c0-0.4,0.1-0.8,0.3-1.2l5.1-10.4h30.3L40.6,25c0.2,0.4,0.3,0.8,0.3,1.2v33.6
			C40.8,62,39.1,63.7,36.9,63.8L36.9,63.8z M5.4,15l-5,10.2c-0.1,0.3-0.2,0.7-0.2,1v33.6c0,1.9,1.6,3.5,3.5,3.5h33.2
			c1.9,0,3.5-1.6,3.5-3.5V26.2c0-0.4-0.1-0.7-0.2-1l-5-10.2H5.4z M36.9,63.2H3.7c-1.8,0-3.3-1.5-3.3-3.3V26.2c0-0.3,0.1-0.6,0.2-0.9
			l5-10.1l29.6,0L40,25.3c0.1,0.3,0.2,0.6,0.2,1v33.6C40.2,61.7,38.7,63.2,36.9,63.2z M5.8,15.6l-4.9,9.9c-0.1,0.2-0.2,0.5-0.2,0.8
			v33.6c0,1.6,1.3,2.9,2.9,2.9h33.2c1.6,0,2.9-1.3,2.9-2.9V26.2c0-0.3-0.1-0.5-0.2-0.8l-4.8-9.8L5.8,15.6z"/>
	</g>
	<g id="Rectangle_149">
		<rect x="0.3" y="51.7" width="40.1" height="0.6"/>
		<path d="M40.5,52.5H0v-1h40.5V52.5z M0.5,52.1h39.7v-0.2H0.5V52.1z"/>
	</g>
	<g id="Path_480">
		<path d="M40.3,34.4h-7.5l-0.1-0.1c-5.1-6.8-14.8-8.3-21.6-3.2c-1.2,0.9-2.3,2-3.2,3.2l-0.1,0.1H0.3v-0.6h7.3
			c5.4-7.1,15.4-8.4,22.5-3.1c1.2,0.9,2.2,1.9,3.1,3.1h7.2L40.3,34.4z"/>
		<path d="M40.5,34.7h-7.8l-0.2-0.2c-2.4-3.3-6-5.4-10-6c-4-0.6-8,0.4-11.3,2.9C10,32.2,9,33.3,8.1,34.4L8,34.7H0v-1h7.4
			c2.6-3.4,6.4-5.6,10.7-6.2c4.3-0.6,8.6,0.5,12,3.2c1.1,0.9,2.2,1.9,3,3h7.3L40.5,34.7z M32.9,34.2h7.2l0-0.2H33L32.9,34
			c-0.9-1.1-1.9-2.2-3-3c-3.4-2.6-7.5-3.7-11.7-3.1C14,28.4,10.3,30.6,7.7,34l-0.1,0.1H0.5v0.2h7.3l0,0c0.9-1.2,2-2.3,3.2-3.2
			c3.4-2.5,7.5-3.5,11.6-2.9C26.7,28.7,30.4,30.8,32.9,34.2L32.9,34.2z"/>
	</g>
	<g id="Path_481">
		<path d="M37,15.4H3.8c-1.2,0-2.1-1-2.1-2.1V7.5c0-1.2,1-2.1,2.1-2.1h1.4V6H3.8C2.9,6,2.3,6.7,2.3,7.5v5.8c0,0.8,0.7,1.5,1.5,1.5
			H37c0.8,0,1.5-0.7,1.5-1.5V7.5C38.5,6.7,37.8,6,37,6H24.1V5.4H37c1.2,0,2.1,1,2.1,2.1v5.8C39.1,14.4,38.2,15.4,37,15.4z"/>
		<path d="M37,15.6H3.8c-1.3,0-2.3-1.1-2.3-2.3V7.5c0-1.3,1.1-2.3,2.3-2.3h1.6v1H3.8c-0.7,0-1.3,0.6-1.3,1.3v5.8
			c0,0.7,0.6,1.3,1.3,1.3H37c0.7,0,1.3-0.6,1.3-1.3V7.5c0-0.7-0.6-1.3-1.3-1.3H23.9v-1H37c1.3,0,2.3,1.1,2.3,2.3v5.8
			C39.3,14.5,38.3,15.6,37,15.6z M3.8,5.6c-1.1,0-1.9,0.9-1.9,1.9v5.8c0,1.1,0.9,1.9,1.9,1.9H37h0c1.1,0,1.9-0.9,1.9-1.9V7.5
			c0-1.1-0.9-1.9-1.9-1.9H24.3v0.2H37c1,0,1.7,0.8,1.7,1.7v5.8c0,1-0.8,1.7-1.7,1.7H3.8c-1,0-1.7-0.8-1.7-1.7V7.5
			c0-1,0.8-1.7,1.7-1.7H5V5.6H3.8z"/>
	</g>
	<g id="Path_482">
		<path d="M7.8,7.1H4.9V4.2h2.9V7.1z M5.5,6.5h1.7V4.8H5.5V6.5z"/>
		<path d="M8,7.3H4.7V4H8V7.3z M5.1,6.9h2.5V4.4H5.1V6.9z M7.4,6.7H5.3V4.6h2.1V6.7z M5.7,6.3H7V5H5.7V6.3z"/>
	</g>
	<g id="Path_483">
		<path d="M22.9,7.1c-0.8,0-1.4-0.6-1.4-1.4s0.6-1.4,1.4-1.4c0.8,0,1.4,0.6,1.4,1.4C24.4,6.5,23.7,7.1,22.9,7.1z M22.9,4.8
			c-0.5,0-0.9,0.4-0.9,0.9c0,0.5,0.4,0.9,0.9,0.9c0.5,0,0.9-0.4,0.9-0.9C23.8,5.2,23.4,4.8,22.9,4.8L22.9,4.8z"/>
		<path d="M22.9,7.3L22.9,7.3c-0.9,0-1.7-0.7-1.7-1.7C21.3,4.8,22,4,22.9,4c0.9,0,1.7,0.7,1.7,1.7C24.6,6.6,23.9,7.3,22.9,7.3z
			 M22.9,4.4c-0.7,0-1.2,0.6-1.2,1.2c0,0.7,0.6,1.2,1.2,1.2c0.7,0,1.2-0.6,1.2-1.2C24.2,5,23.6,4.4,22.9,4.4z M22.9,6.7
			c-0.6,0-1.1-0.5-1.1-1.1c0-0.3,0.1-0.5,0.3-0.8c0.2-0.2,0.5-0.3,0.7-0.3c0.6,0,1.1,0.5,1.1,1.1C24,6.3,23.5,6.7,22.9,6.7z M22.9,5
			c-0.2,0-0.3,0.1-0.5,0.2c-0.1,0.1-0.2,0.3-0.2,0.5c0,0.4,0.3,0.6,0.6,0.6c0.4,0,0.6-0.3,0.6-0.6C23.6,5.3,23.3,5,22.9,5
			C22.9,5,22.9,5,22.9,5L22.9,5z"/>
	</g>
</g>
</svg>
