<svg xmlns="http://www.w3.org/2000/svg" viewBox="0 0 100 100"><title>barcode</title><g data-name="Layer 2"><g data-name="icon-feature-rbarcode"><path d="M.93,55.14a.93.93,0,0,0,.93-.93V39.85A2.88,2.88,0,0,1,4.73,37H15.88a.93.93,0,0,0,0-1.86H4.73A4.73,4.73,0,0,0,0,39.85V54.21A.93.93,0,0,0,.93,55.14Z" fill="#010101"/><path d="M95.27,35.12H80.91a.93.93,0,0,0,0,1.86H95.27a2.88,2.88,0,0,1,2.87,2.87V51A.93.93,0,0,0,100,51V39.85A4.73,4.73,0,0,0,95.27,35.12Z" fill="#010101"/><path d="M99.07,80a.93.93,0,0,0-.93.93V95.27a2.88,2.88,0,0,1-2.87,2.87H84.11a.93.93,0,0,0,0,1.86H95.27A4.73,4.73,0,0,0,100,95.27V80.91A.93.93,0,0,0,99.07,80Z" fill="#010101"/><path d="M19.09,98.14H4.73a2.88,2.88,0,0,1-2.87-2.87V84.11a.93.93,0,0,0-1.86,0V95.27A4.73,4.73,0,0,0,4.73,100H19.09a.93.93,0,0,0,0-1.86Z" fill="#010101"/><path d="M11.3,45.31V81.19a.93.93,0,1,0,1.86,0V45.31a.93.93,0,0,0-1.86,0Z" fill="#010101"/><path d="M16.72,81.19a.93.93,0,1,0,1.85,0V45.31a.93.93,0,1,0-1.85,0Z" fill="#010101"/><path d="M24.84,82.12a.93.93,0,0,0,.93-.93V45.31a.93.93,0,0,0-1.86,0V81.19A.93.93,0,0,0,24.84,82.12Z" fill="#010101"/><path d="M28.47,82.12a.93.93,0,0,0,.93-.93V45.31a.93.93,0,1,0-1.85,0V81.19A.93.93,0,0,0,28.47,82.12Z" fill="#010101"/><path d="M33.89,82.12a.93.93,0,0,0,.93-.93V45.31a.93.93,0,0,0-1.86,0V81.19A.93.93,0,0,0,33.89,82.12Z" fill="#010101"/><path d="M44.72,82.12a.93.93,0,0,0,.93-.93V45.31a.93.93,0,0,0-1.86,0V81.19A.93.93,0,0,0,44.72,82.12Z" fill="#010101"/><path d="M49.12,82.12a.93.93,0,0,0,.93-.93V45.31a.93.93,0,1,0-1.86,0V81.19A.93.93,0,0,0,49.12,82.12Z" fill="#010101"/><path d="M52.76,82.12a.93.93,0,0,0,.93-.93V45.31a.93.93,0,1,0-1.86,0V81.19A.93.93,0,0,0,52.76,82.12Z" fill="#010101"/><path d="M61,82.12a.93.93,0,0,0,.93-.93V45.31a.93.93,0,1,0-1.86,0V81.19A.93.93,0,0,0,61,82.12Z" fill="#010101"/><path d="M68.15,82.12a.93.93,0,0,0,.93-.93V45.31a.93.93,0,0,0-1.86,0V81.19A.93.93,0,0,0,68.15,82.12Z" fill="#010101"/><path d="M71.79,82.12a.93.93,0,0,0,.93-.93V45.31a.93.93,0,0,0-1.86,0V81.19A.93.93,0,0,0,71.79,82.12Z" fill="#010101"/><path d="M77.2,82.12a.93.93,0,0,0,.93-.93V45.31a.93.93,0,0,0-1.86,0V81.19A.93.93,0,0,0,77.2,82.12Z" fill="#010101"/><path d="M83.55,81.19V45.31a.93.93,0,0,0-1.86,0V81.19a.93.93,0,1,0,1.86,0Z" fill="#010101"/><path d="M89,81.19V45.31a.93.93,0,1,0-1.86,0V81.19a.93.93,0,1,0,1.86,0Z" fill="#010101"/><path d="M90,92.67V85.59H82.9V88.2H17.22a3.54,3.54,0,1,0,0,1.86H82.9v2.61Zm-76.14-2a1.52,1.52,0,1,1,1.51-1.51A1.51,1.51,0,0,1,13.83,90.64Zm71.09-3h3v3h-3Z" fill="#010101"/><rect width="100" height="100" fill="none"/></g></g></svg>