<?xml version="1.0" encoding="utf-8"?>
<!-- Generator: Adobe Illustrator 24.1.3, SVG Export Plug-In . SVG Version: 6.00 Build 0)  -->
<svg version="1.1" id="Layer_1" xmlns="http://www.w3.org/2000/svg" xmlns:xlink="http://www.w3.org/1999/xlink" x="0px" y="0px"
	 viewBox="0 0 70 64" style="enable-background:new 0 0 70 64;" xml:space="preserve">
<style type="text/css">
	.st0{fill:#4285F4;}
	.st1{fill:#000001;stroke:#000000;stroke-width:0.5;}
	.st2{fill:#1A1818;stroke:#000000;stroke-width:0.5;}
	.st3{fill:#FFFFFF;}
	.st4{fill:none;stroke:#000000;stroke-miterlimit:10;}
	.st5{stroke:#000000;stroke-width:0.2;}
	.st6{fill:#100F0C;stroke:#000000;stroke-width:0.75;}
	.st7{fill:none;stroke:#000000;stroke-width:0.75;}
	.st8{fill:#FFFFFF;stroke:#000000;stroke-width:0.75;}
	.st9{fill:#100F0C;stroke:#000000;}
	.st10{stroke:#000000;stroke-width:0.4187;stroke-miterlimit:10;}
	.st11{fill:#1A1818;stroke:#000000;stroke-width:0.7;}
	.st12{fill:#040505;stroke:#000000;stroke-width:0.5;}
</style>
<g id="Group_750" transform="translate(0.303 0.303)">
	<g id="Group_690" transform="translate(0 0)">
		<g id="Path_453">
			<path d="M40.2,19.4L8,11.5l-1.9,7.7l-0.6-0.1l2.1-8.3l32.8,8.1L40.2,19.4z"/>
			<path d="M40.4,19.7l-0.2,0l-32-7.9l-1.9,7.7l-1-0.2l2.2-8.7l0.2,0l33,8.2L40.4,19.7z M7.9,11.2l0.2,0l32,7.9l0-0.2L7.7,11l-2,7.9
				L6,19L7.9,11.2z"/>
		</g>
		<g id="Path_454">
			<path d="M2.8,42.4L0,41.7l2.7-10.8L3.2,31L0.7,41.2L3,41.8L2.8,42.4z"/>
			<path d="M3,42.6l-3.3-0.8l2.8-11.2l1,0.2L0.9,41.1l2.3,0.6L3,42.6z M0.2,41.5l2.5,0.6l0-0.2l-2.3-0.6l2.5-10.2l-0.2,0L0.2,41.5z"
				/>
		</g>
		<g id="Path_455">
			<path d="M61.5,56.9l-25.1-6.2l0.1-0.6l24.5,6.1l1.4-5.8l0.6,0.1L61.5,56.9z"/>
			<path d="M61.7,57.2l-0.2,0l-25.3-6.3l0.2-1l0.2,0l24.3,6l1.4-5.8l1,0.2L61.7,57.2z M36.7,50.5l24.7,6.1l1.5-6l-0.2,0l-1.4,5.8
				l-0.2,0l-24.3-6L36.7,50.5z"/>
		</g>
		<g id="Path_456">
			<path d="M66,38.7l-0.6-0.1l3-12.1l-2.8-0.7l0.1-0.6l3.4,0.8L66,38.7z"/>
			<path d="M66.2,39l-1-0.2l3-12.1l-2.8-0.7l0.2-1l3.8,0.9L66.2,39z M65.7,38.4l0.2,0l3-12.3l-3-0.7l0,0.2l2.8,0.7L65.7,38.4z"/>
		</g>
		<g id="Path_457">
			<path d="M58.4,53.4l-10.7-2.7c-0.2,0-0.3-0.2-0.2-0.4s0.2-0.3,0.4-0.2c0,0,0,0,0,0l10.2,2.5l0.6-2.5c0-0.2,0.2-0.3,0.4-0.2
				c0.2,0,0.3,0.2,0.2,0.4c0,0,0,0,0,0L58.4,53.4z"/>
			<path d="M58.5,53.6l-10.9-2.7c-0.1,0-0.2-0.1-0.3-0.2c-0.1-0.1-0.1-0.2-0.1-0.4s0.1-0.2,0.2-0.3c0.1-0.1,0.2-0.1,0.4-0.1l10,2.5
				l0.6-2.3c0.1-0.3,0.3-0.4,0.6-0.4c0.3,0.1,0.4,0.3,0.4,0.6L58.5,53.6z M47.7,50.3C47.6,50.3,47.6,50.4,47.7,50.3
				c-0.1,0.1-0.1,0.1-0.1,0.1c0,0,0,0,0.1,0l10.5,2.6l0.7-2.9c0,0,0-0.1-0.1-0.1c0,0-0.1,0-0.1,0.1l-0.7,2.7L47.7,50.3
				C47.7,50.3,47.7,50.3,47.7,50.3z"/>
		</g>
		<g id="Path_458">
			<path d="M9.2,19.5C9.2,19.5,9.1,19.4,9.2,19.5c-0.2,0-0.3-0.2-0.3-0.4l1.2-5l7.8,1.9c0.2,0,0.3,0.2,0.2,0.4
				c0,0.2-0.2,0.3-0.4,0.2l-7.2-1.8l-1.1,4.4C9.4,19.4,9.3,19.5,9.2,19.5z"/>
			<path d="M9.2,19.7c0,0-0.1,0-0.1,0c-0.3-0.1-0.4-0.3-0.4-0.6l1.3-5.2l8,2c0.1,0,0.2,0.1,0.3,0.2c0.1,0.1,0.1,0.3,0.1,0.4
				c0,0.1-0.1,0.2-0.2,0.3c-0.1,0.1-0.3,0.1-0.4,0.1l-7-1.7l-1,4.2C9.6,19.5,9.4,19.7,9.2,19.7z M10.3,14.4l-1.2,4.7
				c0,0,0,0.1,0.1,0.1l0,0c0,0,0.1,0,0.1-0.1l1.1-4.6l7.4,1.8c0,0,0.1,0,0.1,0c0,0,0,0,0-0.1c0,0,0-0.1-0.1-0.1L10.3,14.4z"/>
		</g>
	</g>
	<g id="Group_691" transform="translate(3.179 9.673)">
		<g id="Path_459">
			<path d="M62.9,41H-0.6V9.2h63.4V41z M0,40.4h62.2V9.8H0L0,40.4z"/>
			<path d="M63.1,41.2H-0.8V9h63.8V41.2z M-0.4,40.8h63V9.4h-63V40.8z M62.5,40.6H-0.2V9.6h62.7V40.6z M0.2,40.2h61.8V10H0.2V40.2z"
				/>
		</g>
		<g id="Path_460">
			<path d="M10.7,38.4h-8v-8.5c0-0.2,0.1-0.3,0.3-0.3s0.3,0.1,0.3,0.3v7.9h7.4c0.2,0,0.3,0.1,0.3,0.3C11,38.2,10.9,38.4,10.7,38.4
				L10.7,38.4L10.7,38.4z"/>
			<path d="M10.7,38.6H2.5v-8.7c0-0.3,0.2-0.5,0.5-0.5s0.5,0.2,0.5,0.5v7.7h7.2c0.3,0,0.5,0.2,0.5,0.5S11,38.6,10.7,38.6z M2.9,38.1
				h7.8c0,0,0.1,0,0.1-0.1c0,0,0-0.1-0.1-0.1H3.1v-8.1c0-0.1-0.2-0.1-0.2,0V38.1z"/>
		</g>
		<g id="Path_461">
			<path d="M59.6,38.4h-8.7c-0.2,0-0.3-0.1-0.3-0.3c0-0.2,0.1-0.3,0.3-0.3H59v-7.9c0-0.2,0.1-0.3,0.3-0.3s0.3,0.1,0.3,0.3V38.4z"/>
			<path d="M59.8,38.6h-9c-0.3,0-0.5-0.2-0.5-0.5s0.2-0.5,0.5-0.5h7.9v-7.7c0-0.3,0.2-0.5,0.5-0.5c0.3,0,0.5,0.2,0.5,0.5V38.6z
				 M50.9,38C50.8,38,50.8,38,50.9,38c-0.1,0.1,0,0.2,0,0.2h8.5v-8.3c0-0.1-0.2-0.1-0.2,0V38H50.9z"/>
		</g>
		<g id="Path_462">
			<path d="M59.3,20.7c-0.2,0-0.3-0.1-0.3-0.3l0,0v-7.9h-8.2c-0.2,0-0.3-0.1-0.3-0.3c0-0.2,0.1-0.3,0.3-0.3h8.7v8.5
				C59.6,20.5,59.5,20.7,59.3,20.7z"/>
			<path d="M59.3,20.9c-0.3,0-0.5-0.2-0.5-0.5v-7.7h-7.9c-0.3,0-0.5-0.2-0.5-0.5s0.2-0.5,0.5-0.5h9v8.7
				C59.8,20.6,59.6,20.9,59.3,20.9z M50.9,12.1C50.8,12.1,50.8,12.1,50.9,12.1c-0.1,0.1,0,0.2,0,0.2h8.4v8.1c0,0.1,0.2,0.1,0.2,0
				v-8.3H50.9z"/>
		</g>
		<g id="Path_463">
			<path d="M3,20.7c-0.2,0-0.3-0.1-0.3-0.3v-8.5h8c0.2,0,0.3,0.1,0.3,0.3c0,0.2-0.1,0.3-0.3,0.3l0,0H3.3v7.9
				C3.3,20.5,3.2,20.7,3,20.7C3,20.7,3,20.7,3,20.7z"/>
			<path d="M3,20.9L3,20.9c-0.3,0-0.5-0.2-0.5-0.5v-8.7h8.2c0.3,0,0.5,0.2,0.5,0.5s-0.2,0.5-0.5,0.5H3.5v7.7
				C3.5,20.6,3.3,20.9,3,20.9z M3,20.4L3,20.4C3,20.4,3.1,20.4,3,20.4l0.1-8.2h7.6c0,0,0.1,0,0.1-0.1s0-0.1-0.1-0.1H2.9L3,20.4
				C2.9,20.4,2.9,20.4,3,20.4z"/>
		</g>
	</g>
	<g id="Group_692" transform="translate(28.657 16.288)">
		<g id="Path_464">
			<path d="M5.7,28.9c-5.7,0-10.4-4.6-10.4-10.4S-0.1,8.1,5.7,8.1c5.7,0,10.4,4.6,10.4,10.4c0,0,0,0,0,0C16,24.2,11.4,28.9,5.7,28.9
				z M5.7,8.7c-5.4,0-9.8,4.4-9.8,9.8c0,5.4,4.4,9.8,9.8,9.8s9.8-4.4,9.8-9.8C15.4,13.1,11.1,8.7,5.7,8.7z"/>
			<path d="M5.7,29.1L5.7,29.1c-5.8,0-10.6-4.8-10.6-10.6S-0.2,7.9,5.7,7.9c5.8,0,10.6,4.8,10.6,10.6C16.3,24.3,11.5,29.1,5.7,29.1z
				 M5.7,8.3c-5.6,0-10.2,4.6-10.2,10.2S0.1,28.7,5.7,28.7c5.6,0,10.2-4.6,10.2-10.2C15.8,12.9,11.3,8.3,5.7,8.3z M5.7,28.5
				c-2.7,0-5.2-1-7.1-2.9c-1.9-1.9-2.9-4.4-2.9-7.1s1-5.2,2.9-7.1C0.5,9.5,3,8.5,5.7,8.5c0,0,0,0,0,0l0,0c5.5,0,10,4.5,10,10
				C15.7,24,11.2,28.5,5.7,28.5z M5.7,8.9c-2.6,0-5,1-6.8,2.8s-2.8,4.2-2.8,6.8s1,5,2.8,6.8c1.8,1.8,4.2,2.8,6.8,2.8
				c5.3,0,9.6-4.3,9.6-9.6C15.2,13.2,10.9,8.9,5.7,8.9C5.7,8.9,5.7,8.9,5.7,8.9z"/>
		</g>
		<g id="Path_465">
			<path d="M5.7,22.3c-0.6,0-1.3-0.2-1.8-0.6c-0.5-0.4-0.7-0.9-0.7-1.5c0-0.2,0.1-0.3,0.3-0.3c0.2,0,0.3,0.1,0.3,0.3c0,0,0,0,0,0
				c0,0.4,0.2,0.9,0.5,1.1c0.8,0.6,1.9,0.6,2.8,0c0.5-0.5,0.5-1.3,0.1-1.9c-0.4-0.4-0.9-0.7-1.5-0.8c-0.7-0.1-1.3-0.5-1.7-1
				c-0.3-0.4-0.5-0.9-0.5-1.3c0-0.5,0.2-1,0.5-1.3c0.5-0.4,1.1-0.7,1.7-0.6c1-0.1,2,0.5,2.2,1.5c0,0.2-0.1,0.3-0.2,0.3
				c-0.2,0-0.3-0.1-0.3-0.2c0,0,0,0,0,0l0,0c0,0-0.2-1-1.6-1c-0.5,0-0.9,0.1-1.3,0.4c-0.2,0.2-0.4,0.6-0.4,0.9c0,0.4,0.1,0.7,0.3,1
				c0.4,0.4,0.9,0.7,1.4,0.8c0.7,0.1,1.3,0.5,1.8,1c0.6,0.8,0.5,1.9-0.2,2.7C7,22.1,6.3,22.3,5.7,22.3z"/>
			<path d="M5.8,22.5c-0.1,0-0.1,0-0.2,0c-0.7,0-1.3-0.2-1.8-0.7c-0.5-0.4-0.8-1-0.8-1.7c0-0.1,0-0.3,0.1-0.4
				c0.1-0.1,0.2-0.2,0.3-0.2c0.1,0,0.3,0,0.4,0.1C3.9,19.8,4,19.9,4,20.1c0,0.4,0.2,0.8,0.5,1c0.7,0.5,1.8,0.5,2.5,0
				C7.3,20.6,7.4,20,7,19.5c-0.3-0.4-0.8-0.6-1.3-0.7c-0.7-0.1-1.4-0.5-1.9-1c-0.3-0.4-0.5-0.9-0.5-1.5c0-0.6,0.2-1.1,0.6-1.5
				c0.5-0.5,1.2-0.7,1.9-0.7c1.1-0.1,2.1,0.6,2.4,1.7c0,0.3-0.1,0.6-0.4,0.6c-0.3,0.1-0.5-0.1-0.6-0.4c0,0-0.2-0.9-1.4-0.9
				c-0.4,0-0.9,0.1-1.2,0.4c-0.2,0.2-0.3,0.5-0.3,0.8c0,0.3,0.1,0.6,0.3,0.8c0.4,0.3,0.8,0.6,1.3,0.7c0.7,0.1,1.4,0.5,1.9,1.1
				c0.6,0.9,0.5,2.1-0.2,2.9C7.1,22.3,6.4,22.5,5.8,22.5z M5.7,22.1L5.7,22.1c0.6,0,1.2-0.2,1.7-0.6c0.6-0.6,0.7-1.6,0.2-2.4
				c-0.4-0.5-1-0.8-1.6-1c-0.6-0.1-1.1-0.4-1.6-0.8C4,17,3.9,16.6,3.9,16.2c0-0.4,0.2-0.8,0.4-1c0.4-0.4,1-0.5,1.5-0.5h0
				c1.6,0,1.8,1.2,1.8,1.2c0,0,0,0.1,0.1,0.1c0.1,0,0.1-0.1,0.1-0.1c-0.2-0.9-1.1-1.5-2-1.4c-0.6,0-1.2,0.2-1.6,0.6
				c-0.3,0.3-0.5,0.7-0.5,1.2c0,0.4,0.1,0.9,0.4,1.2c0.4,0.4,1,0.8,1.6,0.9c0.6,0.1,1.2,0.4,1.6,0.9c0.5,0.7,0.4,1.6-0.1,2.2
				c-0.9,0.7-2.2,0.7-3,0c-0.4-0.3-0.6-0.8-0.6-1.3c0,0,0,0,0-0.1c0,0,0,0-0.1,0c0,0-0.1,0-0.1,0c0,0,0,0,0,0.1c0,0.5,0.2,1,0.7,1.4
				C4.5,21.9,5.1,22.1,5.7,22.1L5.7,22.1z"/>
		</g>
		<g id="Path_466">
			<path d="M5.7,23.5c-0.2,0-0.3-0.1-0.3-0.3v-9.8c0-0.2,0.1-0.3,0.3-0.3c0.2,0,0.3,0.1,0.3,0.3v9.8C6,23.4,5.9,23.5,5.7,23.5z"/>
			<path d="M5.8,23.7c-0.3,0-0.5-0.2-0.5-0.5v-9.8c0-0.3,0.2-0.5,0.5-0.5s0.5,0.2,0.5,0.5v9.8C6.3,23.5,6,23.7,5.8,23.7z M5.8,13.3
				C5.7,13.3,5.7,13.3,5.8,13.3l-0.1,9.9c0,0.1,0.2,0.1,0.2,0L5.8,13.3C5.8,13.3,5.8,13.3,5.8,13.3z"/>
		</g>
	</g>
	<g id="Path_467">
		<path d="M16.5,49.2h-2.9v-2.9h2.9V49.2z M14.2,48.6h1.7v-1.7h-1.7V48.6z"/>
		<path d="M16.7,49.4h-3.3v-3.3h3.3V49.4z M13.8,49h2.5v-2.5h-2.5V49z M16.1,48.8H14v-2.1h2.1V48.8z M14.4,48.4h1.3v-1.3h-1.3V48.4z
			"/>
	</g>
	<g id="Path_468">
		<path d="M52.9,49.2c-0.8,0-1.4-0.6-1.4-1.4c0-0.8,0.6-1.4,1.4-1.4c0.8,0,1.4,0.6,1.4,1.4c0,0,0,0,0,0
			C54.3,48.5,53.7,49.2,52.9,49.2z M52.9,46.9c-0.5,0-0.9,0.4-0.9,0.9s0.4,0.9,0.9,0.9c0.5,0,0.9-0.4,0.9-0.9c0,0,0,0,0,0
			C53.7,47.3,53.4,46.9,52.9,46.9L52.9,46.9z"/>
		<path d="M52.9,49.4L52.9,49.4c-0.9,0-1.7-0.7-1.7-1.7c0-0.9,0.7-1.7,1.7-1.7c0,0,0,0,0,0c0.9,0,1.7,0.7,1.7,1.7
			C54.5,48.6,53.8,49.4,52.9,49.4z M52.9,46.5C52.9,46.5,52.9,46.5,52.9,46.5c-0.7,0-1.2,0.6-1.2,1.2c0,0.7,0.6,1.2,1.2,1.2
			c0.7,0,1.2-0.6,1.2-1.2c0-0.3-0.1-0.6-0.4-0.9C53.5,46.6,53.2,46.5,52.9,46.5z M52.9,48.8C52.9,48.8,52.9,48.8,52.9,48.8
			c-0.6,0-1.1-0.5-1.1-1.1c0-0.3,0.1-0.6,0.3-0.7c0.2-0.2,0.5-0.3,0.7-0.3c0,0,0,0,0,0h0c0.6,0,1.1,0.5,1.1,1.1
			C54,48.3,53.5,48.8,52.9,48.8z M52.9,47.1c-0.2,0-0.3,0.1-0.5,0.2c-0.1,0.1-0.2,0.3-0.2,0.5c0,0.4,0.3,0.6,0.6,0.6c0,0,0,0,0,0
			c0.4,0,0.6-0.3,0.6-0.6C53.5,47.4,53.2,47.1,52.9,47.1L52.9,47.1z"/>
	</g>
</g>
</svg>
