<?xml version="1.0" encoding="utf-8"?>
<!-- Generator: Adobe Illustrator 24.1.3, SVG Export Plug-In . SVG Version: 6.00 Build 0)  -->
<svg version="1.1" id="Layer_1" xmlns="http://www.w3.org/2000/svg" xmlns:xlink="http://www.w3.org/1999/xlink" x="0px" y="0px"
	 viewBox="0 0 70 64" style="enable-background:new 0 0 70 64;" xml:space="preserve">
<style type="text/css">
	.st0{fill:#4285F4;}
	.st1{fill:#000001;stroke:#000000;stroke-width:0.5;}
	.st2{fill:#1A1818;stroke:#000000;stroke-width:0.5;}
	.st3{fill:#FFFFFF;}
	.st4{fill:none;stroke:#000000;stroke-miterlimit:10;}
	.st5{stroke:#000000;stroke-width:0.2;}
	.st6{fill:#100F0C;stroke:#000000;stroke-width:0.75;}
	.st7{fill:none;stroke:#000000;stroke-width:0.75;}
	.st8{fill:#FFFFFF;stroke:#000000;stroke-width:0.75;}
	.st9{fill:#100F0C;stroke:#000000;}
	.st10{stroke:#000000;stroke-width:0.4187;stroke-miterlimit:10;}
	.st11{fill:#1A1818;stroke:#000000;stroke-width:0.7;}
	.st12{fill:#040505;stroke:#000000;stroke-width:0.5;}
</style>
<g id="Group_751" transform="translate(0.362 0.25)">
	<g id="Group_694" transform="translate(0.184)">
		<g id="palette">
			<g id="Path_469">
				<path d="M29.2,63.3c-7.9,0-16.4-3.8-22.2-10c-0.1-0.1-0.1-0.3,0-0.4c0.1-0.1,0.3-0.1,0.4,0c5.7,6,14,9.8,21.8,9.8
					c2.5-0.1,4.5-2.1,4.6-4.6c0.1-1.1-0.4-2.2-1.2-3c-0.8-1-1.3-2.2-1.4-3.4c0.1-2.8,2.3-5.1,5.1-5.1h5.8C50.8,46.6,57.9,39.7,58,31
					c0-0.1,0-0.2,0-0.3C58,16.6,45.1,5.1,29.2,5.1C13.3,5.1,0.4,18,0.4,33.9c-0.1,2.2,0.1,4.4,0.6,6.6c0,0.2-0.1,0.3-0.2,0.4
					c-0.2,0-0.3-0.1-0.4-0.2c-0.5-2.2-0.7-4.5-0.6-6.7C-0.2,17.7,13,4.5,29.2,4.5c16.2,0,29.4,11.7,29.4,26.2
					c0.1,9-7.1,16.4-16.1,16.5c-0.1,0-0.2,0-0.4,0h-5.8c-2.5,0.1-4.5,2.1-4.6,4.6c0.1,1.1,0.5,2.2,1.2,3.1c0.9,0.9,1.4,2.1,1.3,3.4
					C34.3,60.9,32,63.2,29.2,63.3z M47,34.2c-2.8,0-5.1-2.3-5.1-5.1s2.3-5.1,5.1-5.1c2.8,0,5.1,2.3,5.1,5.1c0,0,0,0,0,0
					C52,31.8,49.8,34.1,47,34.2z M47,24.5c-2.5,0-4.6,2-4.6,4.5c0,2.5,2,4.6,4.5,4.6c2.5,0,4.6-2,4.6-4.5c0,0,0,0,0,0
					C51.5,26.5,49.5,24.5,47,24.5z M11.4,34.2c-2.8,0-5.1-2.3-5.1-5.1c0-2.8,2.3-5.1,5.1-5.1c2.8,0,5.1,2.3,5.1,5.1c0,0,0,0,0,0
					C16.5,31.8,14.2,34.1,11.4,34.2L11.4,34.2z M11.4,24.5c-2.5,0-4.6,2-4.6,4.5c0,2.5,2,4.6,4.5,4.6c2.5,0,4.6-2,4.6-4.5
					c0,0,0,0,0,0C15.9,26.5,13.9,24.5,11.4,24.5L11.4,24.5z M37.3,21.3c-2.8,0-5.1-2.3-5.1-5.1c0-2.8,2.3-5.1,5.1-5.1
					c2.8,0,5.1,2.3,5.1,5.1C42.4,18.9,40.1,21.2,37.3,21.3L37.3,21.3z M37.3,11.6c-2.5,0-4.6,2-4.6,4.6s2,4.6,4.6,4.6
					c2.5,0,4.6-2,4.6-4.6l0,0C41.8,13.6,39.8,11.6,37.3,11.6L37.3,11.6z M21.1,21.3c-2.8-0.1-5.1-2.3-5.1-5.1c0-0.2,0.1-0.3,0.3-0.3
					c0.2,0,0.3,0.1,0.3,0.3c0,2.5,2,4.6,4.6,4.6s4.6-2,4.6-4.6c0-2.5-2-4.6-4.6-4.6l0,0c-1.4,0-2.8,0.7-3.6,1.9
					c-0.1,0.1-0.3,0.1-0.4,0c-0.1-0.1-0.1-0.3-0.1-0.4c1-1.3,2.5-2.1,4.1-2.1c2.8,0,5.1,2.3,5.1,5.1S24,21.3,21.1,21.3L21.1,21.3z"
					/>
				<path d="M29.2,63.5L29.2,63.5c-8,0-16.6-3.8-22.4-10c-0.1-0.1-0.1-0.2-0.1-0.4c0-0.1,0.1-0.3,0.2-0.4c0.1-0.1,0.2-0.2,0.4-0.1
					c0.1,0,0.3,0.1,0.4,0.2c5.7,6,13.9,9.7,21.7,9.7c2.4-0.1,4.3-2,4.3-4.3c0.1-1.1-0.4-2.1-1.1-2.9c-0.9-1-1.4-2.3-1.4-3.6
					c0.1-2.9,2.4-5.3,5.3-5.4h5.8c0.1,0,0.1,0,0.2,0c4.1,0,7.9-1.6,10.8-4.4c3-2.9,4.6-6.8,4.7-10.9c0-0.1,0-0.2,0-0.3
					c0-14-12.8-25.4-28.6-25.4C13.5,5.3,0.6,18.1,0.6,33.9c-0.1,2.2,0.1,4.4,0.6,6.6c0,0.1,0,0.3-0.1,0.4C1.1,40.9,1,41,0.8,41
					c-0.3,0.1-0.5-0.1-0.6-0.4c-0.5-2.2-0.7-4.5-0.6-6.8c0-16.3,13.3-29.6,29.6-29.6c16.3,0,29.6,11.8,29.6,26.4
					c0,4.4-1.6,8.6-4.7,11.7c-3.1,3.1-7.2,4.9-11.6,5c-0.1,0-0.2,0-0.4,0h-5.8c-2.4,0.1-4.3,2-4.3,4.3c0.1,1.1,0.5,2.1,1.2,2.9
					c0.9,0.9,1.5,2.2,1.4,3.5C34.5,61.1,32.1,63.4,29.2,63.5L29.2,63.5z M7.2,53C7.2,53,7.1,53,7.2,53c-0.1,0-0.1,0.1-0.1,0.1
					c5.8,6.1,14.2,9.9,22.1,9.9c2.7-0.1,4.9-2.2,4.9-4.9c0.1-1.2-0.4-2.4-1.3-3.2c-0.8-0.9-1.2-2-1.3-3.2c0.1-2.6,2.2-4.7,4.8-4.8
					h5.8c0.1,0,0.2,0,0.4,0c4.3,0,8.3-1.8,11.3-4.8c3-3.1,4.6-7.1,4.6-11.4c0-14.3-13.1-25.9-29.2-25.9C13.1,4.7,0,17.8,0,33.9
					c-0.1,2.2,0.1,4.5,0.6,6.7c0,0,0.1,0.1,0.1,0.1c0,0,0,0,0.1,0s0,0,0-0.1c-0.5-2.2-0.7-4.4-0.6-6.6c0-16,13-29,29-29
					c16,0,29,11.6,29,25.8c0,0.1,0,0.2,0,0.3c0,4.2-1.7,8.2-4.8,11.2c-3,2.9-6.9,4.5-11.1,4.5c-0.1,0-0.1,0-0.2,0h-5.8
					c-2.7,0.1-4.9,2.2-4.9,4.9c0.1,1.2,0.5,2.4,1.3,3.3c0.9,0.8,1.3,2,1.3,3.2c-0.1,2.6-2.2,4.7-4.8,4.7C21.4,62.9,13,59.1,7.2,53
					C7.2,53,7.2,53,7.2,53z M47,34.4c-3,0-5.4-2.4-5.4-5.4c0-3,2.4-5.4,5.4-5.4c0,0,0,0,0,0c1.4,0,2.8,0.6,3.8,1.6
					c1,1,1.6,2.4,1.6,3.8C52.3,32,49.9,34.3,47,34.4L47,34.4C47,34.4,47,34.4,47,34.4z M47,24.1C47,24.1,47,24.1,47,24.1
					c-1.3,0-2.6,0.5-3.5,1.4C42.6,26.5,42,27.7,42,29c0,2.7,2.2,4.9,4.9,4.9c0,0,0,0,0,0c2.7-0.1,4.9-2.2,4.9-4.9
					c0-1.3-0.5-2.6-1.4-3.5C49.5,24.6,48.3,24.1,47,24.1z M11.4,34.4c-3,0-5.4-2.4-5.4-5.4c0-3,2.4-5.4,5.4-5.4c0,0,0,0,0,0
					c3,0,5.4,2.4,5.4,5.4C16.7,32,14.4,34.3,11.4,34.4l0-0.1L11.4,34.4C11.4,34.4,11.4,34.4,11.4,34.4z M11.4,24.1
					C11.4,24.1,11.4,24.1,11.4,24.1c-1.3,0-2.6,0.5-3.5,1.4C7,26.5,6.5,27.7,6.5,29c0,2.7,2.2,4.9,4.9,4.9c2.7-0.1,4.9-2.2,4.9-4.9
					C16.4,26.3,14.1,24.1,11.4,24.1z M47,33.8C47,33.8,47,33.8,47,33.8c-2.6,0-4.8-2.1-4.8-4.8c0-2.6,2.1-4.8,4.8-4.8c0,0,0,0,0,0h0
					c2.6,0.1,4.7,2.2,4.8,4.8c0,1.3-0.5,2.5-1.4,3.4C49.4,33.3,48.2,33.8,47,33.8z M47,24.7c-2.4,0-4.3,1.9-4.3,4.3
					c0,2.4,1.9,4.3,4.3,4.3c0,0,0,0,0,0c1.2,0,2.2-0.5,3.1-1.3c0.8-0.8,1.3-1.9,1.3-3.1C51.3,26.7,49.4,24.8,47,24.7L47,24.7z
					 M11.4,33.8C11.4,33.8,11.4,33.8,11.4,33.8c-2.6,0-4.8-2.1-4.8-4.8c0-2.6,2.1-4.8,4.8-4.8c0,0,0,0,0,0v0.1l0-0.1
					c2.6,0.1,4.7,2.2,4.8,4.8c0,1.3-0.5,2.5-1.4,3.4C13.9,33.3,12.7,33.8,11.4,33.8z M11.4,24.7c-2.4,0-4.3,1.9-4.3,4.3
					c0,2.4,1.9,4.3,4.3,4.3c0,0,0,0,0,0c1.2,0,2.2-0.5,3.1-1.3c0.8-0.8,1.3-1.9,1.3-3.1C15.7,26.7,13.8,24.8,11.4,24.7z M37.3,21.5
					c-1.4,0-2.8-0.6-3.8-1.6c-1-1-1.6-2.4-1.6-3.8c0-3,2.4-5.4,5.4-5.4c3,0,5.4,2.4,5.4,5.4C42.6,19,40.2,21.4,37.3,21.5L37.3,21.5
					L37.3,21.5z M37.3,11.2c-2.7,0-4.9,2.2-4.9,4.9c0,1.3,0.5,2.6,1.4,3.5c0.9,0.9,2.2,1.4,3.5,1.4v0c2.7-0.1,4.9-2.2,4.9-4.9
					C42.2,13.4,40,11.2,37.3,11.2z M21.1,21.5L21.1,21.5c-2.9-0.1-5.3-2.4-5.4-5.3c0-0.3,0.2-0.5,0.5-0.5c0.3,0,0.5,0.2,0.5,0.5
					c0,2.4,1.9,4.3,4.3,4.3c2.4,0,4.3-1.9,4.3-4.3c0-2.4-1.9-4.3-4.3-4.3c-1.4,0-2.7,0.7-3.5,1.8c-0.2,0.2-0.5,0.3-0.7,0.1
					c-0.2-0.2-0.2-0.5-0.1-0.7c1-1.4,2.6-2.2,4.3-2.2c3,0,5.4,2.4,5.4,5.4S24.1,21.5,21.1,21.5z M16.3,16C16.2,16,16.2,16.1,16.3,16
					c0,2.8,2.1,5,4.9,5c2.7,0,4.9-2.2,4.9-4.9c0-2.7-2.2-4.9-4.9-4.9c-1.5,0-3,0.8-3.9,2c0,0,0,0.1,0,0.1c0,0,0.1,0,0.1,0
					c0.9-1.2,2.3-1.9,3.8-2c2.6,0,4.8,2.1,4.8,4.8s-2.1,4.8-4.8,4.8S16.4,18.7,16.3,16C16.4,16.1,16.3,16,16.3,16z M37.3,20.9
					c-2.6,0-4.8-2.1-4.8-4.8s2.1-4.8,4.8-4.8v0l0,0c2.6,0.1,4.7,2.2,4.8,4.8C42,18.7,39.9,20.9,37.3,20.9z M37.3,11.8L37.3,11.8
					c-2.4,0-4.3,1.9-4.3,4.3c0,2.4,1.9,4.3,4.3,4.3s4.3-1.9,4.3-4.3C41.6,13.7,39.7,11.8,37.3,11.8z"/>
			</g>
		</g>
	</g>
	<g id="Path_470">
		<path d="M6.6,54.2l-1.9-1.9l1.9-1.9l1.9,1.9L6.6,54.2z M5.6,52.3l1,1l1-1l-1-1L5.6,52.3z"/>
		<path d="M6.6,54.5l-2.2-2.2l2.2-2.2l2.2,2.2L6.6,54.5z M5.1,52.3l1.6,1.6l1.6-1.6l-1.6-1.6L5.1,52.3z M6.6,53.7l-1.3-1.3L6.6,51
			L8,52.3L6.6,53.7z M5.9,52.3l0.7,0.7l0.7-0.7l-0.7-0.7L5.9,52.3z"/>
	</g>
	<g id="Path_471">
		<path d="M1.2,42.9c-0.7,0-1.3-0.6-1.3-1.3c0-0.7,0.6-1.3,1.3-1.3c0.7,0,1.3,0.6,1.3,1.3c0,0.3-0.1,0.7-0.4,0.9
			C1.9,42.7,1.5,42.9,1.2,42.9z M1.2,40.8c-0.4,0-0.7,0.3-0.7,0.7c0,0.2,0.1,0.4,0.2,0.5c0.3,0.3,0.7,0.3,1,0c0.3-0.3,0.3-0.7,0-1
			C1.5,40.9,1.4,40.8,1.2,40.8z"/>
		<path d="M1.2,43.1L1.2,43.1c-0.8,0-1.5-0.7-1.5-1.5c0-0.8,0.7-1.5,1.5-1.5s1.5,0.7,1.5,1.5c0,0.4-0.2,0.8-0.4,1.1
			C2,42.9,1.6,43.1,1.2,43.1z M1.2,40.4c-0.6,0-1.1,0.5-1.1,1.1c0,0.6,0.5,1.1,1.1,1.1c0.3,0,0.6-0.1,0.8-0.3
			c0.2-0.2,0.3-0.5,0.3-0.8C2.3,40.9,1.8,40.4,1.2,40.4z M1.2,42.5C1.2,42.5,1.2,42.5,1.2,42.5c-0.3,0-0.5-0.1-0.7-0.3
			c-0.2-0.2-0.3-0.4-0.3-0.7c0-0.5,0.4-0.9,0.9-0.9l0,0c0,0,0,0,0,0c0.2,0,0.5,0.1,0.7,0.3c0.4,0.4,0.4,1,0,1.3
			C1.7,42.4,1.4,42.5,1.2,42.5z M1.2,41c-0.3,0-0.5,0.2-0.5,0.5c0,0.1,0.1,0.3,0.2,0.4C0.9,42,1,42.1,1.2,42.1c0,0,0,0,0,0
			c0.1,0,0.3-0.1,0.4-0.2c0.2-0.2,0.2-0.5,0-0.7C1.4,41.1,1.3,41,1.2,41C1.2,41,1.2,41,1.2,41L1.2,41z"/>
	</g>
</g>
</svg>
