<svg id="Layer_1" data-name="Layer 1" xmlns="http://www.w3.org/2000/svg" viewBox="0 0 70 64"><defs><style>.cls-1{fill:#13110c;}</style></defs><title>9</title><path class="cls-1" d="M26.79,58.64a9.15,9.15,0,1,1,9.15-9.15A9.16,9.16,0,0,1,26.79,58.64Zm0-17.55a8.4,8.4,0,1,0,8.4,8.4A8.4,8.4,0,0,0,26.79,41.09Z"/><path class="cls-1" d="M24.82,43.64a.37.37,0,0,1-.31-.17l-1-1.49a.37.37,0,1,1,.62-.42l1,1.5a.37.37,0,0,1-.1.52A.42.42,0,0,1,24.82,43.64Zm-3.68-5.57a.4.4,0,0,1-.32-.17l-1.65-2.5a.37.37,0,1,1,.62-.42l1.66,2.51a.38.38,0,0,1-.11.52A.36.36,0,0,1,21.14,38.07Zm-4.35-6.58a.4.4,0,0,1-.32-.17l-1.65-2.5a.37.37,0,0,1,.62-.42l1.66,2.51a.38.38,0,0,1-.11.52A.36.36,0,0,1,16.79,31.49Zm-4.35-6.58a.4.4,0,0,1-.32-.17l-1.65-2.5a.37.37,0,0,1,.62-.42l1.66,2.51a.37.37,0,0,1-.11.52A.36.36,0,0,1,12.44,24.91ZM8.09,18.33a.37.37,0,0,1-.31-.17l-1.66-2.5a.37.37,0,0,1,.62-.42L8.4,17.75a.37.37,0,0,1-.1.52A.42.42,0,0,1,8.09,18.33ZM3.74,11.75a.37.37,0,0,1-.31-.17L1.77,9.08a.36.36,0,0,1,.11-.52.37.37,0,0,1,.52.1l1.65,2.51a.37.37,0,0,1-.1.52A.42.42,0,0,1,3.74,11.75Z"/><path class="cls-1" d="M27.65,43.64a.42.42,0,0,1-.21-.06.37.37,0,0,1-.1-.52l.86-1.28a.38.38,0,0,1,.63.42L28,43.48A.36.36,0,0,1,27.65,43.64Zm3.59-5.32a.44.44,0,0,1-.21-.07.38.38,0,0,1-.1-.52l1.68-2.49a.37.37,0,1,1,.62.42l-1.67,2.49A.4.4,0,0,1,31.24,38.32Zm4.41-6.55a.42.42,0,0,1-.21-.06.37.37,0,0,1-.1-.52L37,28.7a.36.36,0,0,1,.52-.1.37.37,0,0,1,.1.52L36,31.61A.36.36,0,0,1,35.65,31.77Zm4.41-6.54a.39.39,0,0,1-.21-.06.37.37,0,0,1-.1-.52l1.68-2.49a.37.37,0,0,1,.52-.11.38.38,0,0,1,.1.53l-1.68,2.49A.36.36,0,0,1,40.06,25.23Zm4.41-6.54a.39.39,0,0,1-.21-.06.37.37,0,0,1-.1-.52l1.68-2.49a.37.37,0,0,1,.52-.11.38.38,0,0,1,.1.53l-1.68,2.49A.36.36,0,0,1,44.47,18.69Zm4.41-6.54a.37.37,0,0,1-.21-.06.38.38,0,0,1-.11-.52l1.68-2.49A.39.39,0,0,1,50.77,9a.39.39,0,0,1,.1.53L49.19,12A.36.36,0,0,1,48.88,12.15Z"/><path class="cls-1" d="M46.1,15.26a.36.36,0,0,1-.2-.06A35.5,35.5,0,0,0,7.41,15a.38.38,0,0,1-.52-.11A.37.37,0,0,1,7,14.41a36.26,36.26,0,0,1,39.31.16.38.38,0,0,1,.11.52A.4.4,0,0,1,46.1,15.26Z"/><path class="cls-1" d="M9.9,20.13a.39.39,0,0,1-.34-.21.38.38,0,0,1,.16-.5,36.25,36.25,0,0,1,33.61,0,.36.36,0,0,1,.16.5.37.37,0,0,1-.51.16,35.53,35.53,0,0,0-32.91,0A.41.41,0,0,1,9.9,20.13Z"/><path class="cls-1" d="M13.45,24.51a.38.38,0,0,1-.35-.24.37.37,0,0,1,.21-.48,36.35,36.35,0,0,1,26.16-.11.38.38,0,0,1,.22.49.37.37,0,0,1-.49.21,35.57,35.57,0,0,0-25.61.11Z"/><path class="cls-1" d="M16.88,30a.38.38,0,0,1-.1-.74A36.63,36.63,0,0,1,35.32,29a.38.38,0,0,1,.28.45.38.38,0,0,1-.46.27A36,36,0,0,0,17,29.94Z"/><path class="cls-1" d="M32.15,35.67h-.06a36.37,36.37,0,0,0-11.12,0,.37.37,0,1,1-.11-.74,37.17,37.17,0,0,1,11.34,0,.38.38,0,0,1,.32.43A.38.38,0,0,1,32.15,35.67Z"/><path class="cls-1" d="M27.32,55.47h-.83a.38.38,0,1,1,0-.75h.45V48.51a.37.37,0,0,1,.23-.34.38.38,0,0,1,.41.07L29.43,50l.74-.57-3.79-3.84a.37.37,0,0,1,.54-.52L31,49.22a.37.37,0,0,1,.11.29.39.39,0,0,1-.15.28l-1.33,1a.38.38,0,0,1-.49,0L27.69,49.4v5.69A.37.37,0,0,1,27.32,55.47Z"/><path class="cls-1" d="M26.56,55.47h-.83a.38.38,0,0,1-.38-.38V49.4l-1.44,1.38a.38.38,0,0,1-.49,0l-1.33-1a.39.39,0,0,1-.15-.28.37.37,0,0,1,.11-.29l4.08-4.13a.37.37,0,1,1,.54.52l-3.79,3.84.74.57,1.85-1.78a.38.38,0,0,1,.41-.07.37.37,0,0,1,.23.34v6.21h.45a.38.38,0,1,1,0,.75Z"/></svg>