<svg id="Layer_1" data-name="Layer 1" xmlns="http://www.w3.org/2000/svg" viewBox="0 0 70 64"><defs><style>.cls-1,.cls-4{stroke:#000;}.cls-1{stroke-miterlimit:10;stroke-width:0.25px;}.cls-2{fill:#fff;}.cls-3{fill:#13110c;}.cls-4{fill:none;stroke-linejoin:round;}</style></defs><title>book</title><path class="cls-1" d="M42.74,47.83a1.42,1.42,0,1,1,1.42-1.42,1.42,1.42,0,0,1-1.42,1.42m0-2.37a1,1,0,1,0,.94.95,1,1,0,0,0-.94-.95"/><path class="cls-1" d="M49.65,13.2V43.48H39.13a.34.34,0,0,0-.33.3v.11a.34.34,0,0,0,.33.3H50.35V12.5H38.8v.7Z"/><path class="cls-1" d="M50.26,49.8a2.46,2.46,0,0,0,2.46-2.46V29.89a.35.35,0,0,0-.35-.35.35.35,0,0,0-.35.35V47.34a1.76,1.76,0,0,1-1.76,1.76H38.8v.7Z"/><path class="cls-1" d="M52.37,30.51a.35.35,0,0,0,.35-.35V12.44A2.46,2.46,0,0,0,50.26,10H38.8v.7H50.26A1.76,1.76,0,0,1,52,12.44V30.16a.35.35,0,0,0,.35.35"/><path class="cls-2" d="M38.78,43.83a.11.11,0,0,0,0,.06v-.11s0,0,0,0"/><path class="cls-3" d="M14.23,24.54v1.61a.33.33,0,1,0,.66,0V25.2h3.6V32h-.95a.33.33,0,0,0-.33.33.33.33,0,0,0,.33.33H20.1a.33.33,0,0,0,.33-.33A.33.33,0,0,0,20.1,32h-1V25.2h3.6v.95a.33.33,0,1,0,.66,0V24.54Z"/><rect class="cls-4" x="1.24" y="3.31" width="34.78" height="52.7"/><polyline class="cls-4" points="36.03 5.94 38.48 5.94 38.48 58.63 3.7 58.63 3.7 56.01"/></svg>