<?xml version="1.0" encoding="utf-8"?>
<!-- Generator: Adobe Illustrator 24.1.0, SVG Export Plug-In . SVG Version: 6.00 Build 0)  -->
<svg version="1.1" id="Layer_1" xmlns="http://www.w3.org/2000/svg" xmlns:xlink="http://www.w3.org/1999/xlink" x="0px" y="0px"
	 viewBox="0 0 71 71" style="enable-background:new 0 0 71 71;" xml:space="preserve">
<style type="text/css">
	.st0{fill:#F4F1F0;stroke:#F4F1F0;stroke-width:0.5429;stroke-miterlimit:10;}
	.st1{fill:none;stroke:#F4F1F0;stroke-width:0.5429;stroke-miterlimit:10;}
	.st2{fill:none;stroke:#F4F1F0;stroke-width:1.6824;stroke-linecap:round;stroke-linejoin:round;stroke-dasharray:0,6.8195;}
	.st3{fill:none;stroke:#F4F1F0;stroke-width:1.6824;stroke-miterlimit:10;}
	.st4{fill:none;stroke:#F4F1F0;stroke-width:1.5;stroke-miterlimit:10;}
	.st5{fill:none;stroke:#F4F1F0;stroke-width:1.8205;stroke-linecap:round;stroke-miterlimit:10;}
	.st6{fill:none;stroke:#F4F1F0;stroke-width:1.8205;stroke-miterlimit:10;}
	.st7{fill:none;stroke:#F4F1F0;stroke-width:1.6866;stroke-linecap:round;stroke-miterlimit:10;}
	.st8{fill:none;stroke:#F4F1F0;stroke-width:2.2488;stroke-miterlimit:10;}
	.st9{fill:none;stroke:#F4F1F0;stroke-width:1.5;stroke-linecap:round;stroke-linejoin:round;}
	.st10{fill:none;stroke:#F4F1F0;stroke-width:1.5;stroke-linecap:round;stroke-miterlimit:10;}
	.st11{fill:#F4F1F0;}
	.st12{fill:none;stroke:#F4F1F0;stroke-width:1.7334;stroke-linecap:round;stroke-miterlimit:10;}
</style>
<g id="Layer_2_2_">
	<g id="NEW_ICONS_1_">
		<polyline class="st9" points="40.32,17.71 3.31,35.7 40.32,54.17 		"/>
		<path class="st4" d="M26.18,52.57c9.24-9.6,8.96-24.87-0.64-34.12c-0.01-0.01-0.01-0.01-0.02-0.02"/>
		<path class="st10" d="M44.07,25.37c5.59,4.94,6.12,13.49,1.18,19.08c-0.37,0.42-0.76,0.81-1.18,1.18"/>
		<path class="st10" d="M50.99,18.23c9.49,8.49,10.3,23.07,1.81,32.56c-0.62,0.7-1.29,1.35-1.99,1.97"/>
		<path class="st10" d="M57.87,12.43c12.64,12.02,13.14,32.02,1.12,44.66c-0.48,0.51-0.98,1-1.49,1.47"/>
	</g>
</g>
</svg>
