<?xml version="1.0" encoding="utf-8"?>
<!-- Generator: Adobe Illustrator 24.1.0, SVG Export Plug-In . SVG Version: 6.00 Build 0)  -->
<svg version="1.1" id="Layer_1" xmlns="http://www.w3.org/2000/svg" xmlns:xlink="http://www.w3.org/1999/xlink" x="0px" y="0px"
	 viewBox="0 0 71 71" style="enable-background:new 0 0 71 71;" xml:space="preserve">
<style type="text/css">
	.st0{fill:#F4F1F0;stroke:#F4F1F0;stroke-width:0.5429;stroke-miterlimit:10;}
	.st1{fill:none;stroke:#F4F1F0;stroke-width:0.5429;stroke-miterlimit:10;}
	.st2{fill:none;stroke:#F4F1F0;stroke-width:1.6824;stroke-linecap:round;stroke-linejoin:round;stroke-dasharray:0,6.8195;}
	.st3{fill:none;stroke:#F4F1F0;stroke-width:1.6824;stroke-miterlimit:10;}
	.st4{fill:none;stroke:#F4F1F0;stroke-width:1.5;stroke-miterlimit:10;}
	.st5{fill:none;stroke:#F4F1F0;stroke-width:1.8205;stroke-linecap:round;stroke-miterlimit:10;}
	.st6{fill:none;stroke:#F4F1F0;stroke-width:1.8205;stroke-miterlimit:10;}
	.st7{fill:none;stroke:#F4F1F0;stroke-width:1.6866;stroke-linecap:round;stroke-miterlimit:10;}
	.st8{fill:none;stroke:#F4F1F0;stroke-width:2.2488;stroke-miterlimit:10;}
	.st9{fill:none;stroke:#F4F1F0;stroke-width:1.5;stroke-linecap:round;stroke-linejoin:round;}
	.st10{fill:none;stroke:#F4F1F0;stroke-width:1.5;stroke-linecap:round;stroke-miterlimit:10;}
	.st11{fill:#F4F1F0;}
	.st12{fill:none;stroke:#F4F1F0;stroke-width:1.7334;stroke-linecap:round;stroke-miterlimit:10;}
</style>
<g id="Layer_2_6_">
	<g id="NEW_ICONS_5_">
		<path class="st4" d="M18.31,53.39h-0.35c-8.14,0-14.74-6.6-14.74-14.74s6.6-14.74,14.74-14.74h0.51v-0.24
			c1.77-7.89,8.77-13.49,16.85-13.5c4.61-0.01,9.03,1.85,12.26,5.15l1.26,1.42c2.39,3.02,3.69,6.76,3.7,10.61V29h2.69
			c6.73-0.21,12.36,5.09,12.57,11.82s-5.09,12.36-11.82,12.57c-0.25,0.01-0.5,0.01-0.74,0H18.31z"/>
		<path class="st4" d="M53.66,8.79L12.84,62.21"/>
	</g>
</g>
</svg>
